<svg id="visual" viewBox="0 0 960 540" width="960" height="540" xmlns="http://www.w3.org/2000/svg" xmlns:xlink="http://www.w3.org/1999/xlink" version="1.1"><rect x="0" y="0" width="960" height="540" fill="#d9c58a"></rect><path d="M0 278L16 270.2C32 262.3 64 246.7 96 247.7C128 248.7 160 266.3 192 280C224 293.7 256 303.3 288 302.3C320 301.3 352 289.7 384 283.3C416 277 448 276 480 266.3C512 256.7 544 238.3 576 234.3C608 230.3 640 240.7 672 255.7C704 270.7 736 290.3 768 287.2C800 284 832 258 864 254.3C896 250.7 928 269.3 944 278.7L960 288L960 541L944 541C928 541 896 541 864 541C832 541 800 541 768 541C736 541 704 541 672 541C640 541 608 541 576 541C544 541 512 541 480 541C448 541 416 541 384 541C352 541 320 541 288 541C256 541 224 541 192 541C160 541 128 541 96 541C64 541 32 541 16 541L0 541Z" fill="#406924"></path><path d="M0 277L16 288.2C32 299.3 64 321.7 96 332.3C128 343 160 342 192 332.8C224 323.7 256 306.3 288 309C320 311.7 352 334.3 384 342.5C416 350.7 448 344.3 480 330.2C512 316 544 294 576 284.2C608 274.3 640 276.7 672 281C704 285.3 736 291.7 768 300.7C800 309.7 832 321.3 864 318.7C896 316 928 299 944 290.5L960 282L960 541L944 541C928 541 896 541 864 541C832 541 800 541 768 541C736 541 704 541 672 541C640 541 608 541 576 541C544 541 512 541 480 541C448 541 416 541 384 541C352 541 320 541 288 541C256 541 224 541 192 541C160 541 128 541 96 541C64 541 32 541 16 541L0 541Z" fill="#586b22"></path><path d="M0 324L16 327.8C32 331.7 64 339.3 96 349.2C128 359 160 371 192 373.2C224 375.3 256 367.7 288 366.3C320 365 352 370 384 372.7C416 375.3 448 375.7 480 366.7C512 357.7 544 339.3 576 338.8C608 338.3 640 355.7 672 367.3C704 379 736 385 768 377.8C800 370.7 832 350.3 864 343.2C896 336 928 342 944 345L960 348L960 541L944 541C928 541 896 541 864 541C832 541 800 541 768 541C736 541 704 541 672 541C640 541 608 541 576 541C544 541 512 541 480 541C448 541 416 541 384 541C352 541 320 541 288 541C256 541 224 541 192 541C160 541 128 541 96 541C64 541 32 541 16 541L0 541Z" fill="#6d6c25"></path><path d="M0 424L16 415.7C32 407.3 64 390.7 96 385.2C128 379.7 160 385.3 192 382.2C224 379 256 367 288 368.8C320 370.7 352 386.3 384 395.2C416 404 448 406 480 408.7C512 411.3 544 414.7 576 405.5C608 396.3 640 374.7 672 370C704 365.3 736 377.7 768 382.5C800 387.3 832 384.7 864 381.2C896 377.7 928 373.3 944 371.2L960 369L960 541L944 541C928 541 896 541 864 541C832 541 800 541 768 541C736 541 704 541 672 541C640 541 608 541 576 541C544 541 512 541 480 541C448 541 416 541 384 541C352 541 320 541 288 541C256 541 224 541 192 541C160 541 128 541 96 541C64 541 32 541 16 541L0 541Z" fill="#806c2c"></path><path d="M0 426L16 429.3C32 432.7 64 439.3 96 445.7C128 452 160 458 192 455.3C224 452.7 256 441.3 288 433.3C320 425.3 352 420.7 384 417.2C416 413.7 448 411.3 480 411.3C512 411.3 544 413.7 576 421C608 428.3 640 440.7 672 447.7C704 454.7 736 456.3 768 450.3C800 444.3 832 430.7 864 430C896 429.3 928 441.7 944 447.8L960 454L960 541L944 541C928 541 896 541 864 541C832 541 800 541 768 541C736 541 704 541 672 541C640 541 608 541 576 541C544 541 512 541 480 541C448 541 416 541 384 541C352 541 320 541 288 541C256 541 224 541 192 541C160 541 128 541 96 541C64 541 32 541 16 541L0 541Z" fill="#916d37"></path><path d="M0 492L16 491.8C32 491.7 64 491.3 96 490.3C128 489.3 160 487.7 192 489.2C224 490.7 256 495.3 288 490.3C320 485.3 352 470.7 384 469C416 467.3 448 478.7 480 481.2C512 483.7 544 477.3 576 475.7C608 474 640 477 672 474.5C704 472 736 464 768 459.7C800 455.3 832 454.7 864 454.7C896 454.7 928 455.3 944 455.7L960 456L960 541L944 541C928 541 896 541 864 541C832 541 800 541 768 541C736 541 704 541 672 541C640 541 608 541 576 541C544 541 512 541 480 541C448 541 416 541 384 541C352 541 320 541 288 541C256 541 224 541 192 541C160 541 128 541 96 541C64 541 32 541 16 541L0 541Z" fill="#9f6e45"></path></svg>