<svg id="visual" viewBox="0 0 960 540" width="960" height="540" xmlns="http://www.w3.org/2000/svg" xmlns:xlink="http://www.w3.org/1999/xlink" version="1.1"><rect x="0" y="0" width="960" height="540" fill="#101c69"></rect><path d="M0 244L22.8 251.5C45.7 259 91.3 274 137 283.2C182.7 292.3 228.3 295.7 274 290.2C319.7 284.7 365.3 270.3 411.2 276.3C457 282.3 503 308.7 548.8 312.8C594.7 317 640.3 299 686 297.5C731.7 296 777.3 311 823 307.7C868.7 304.3 914.3 282.7 937.2 271.8L960 261L960 541L937.2 541C914.3 541 868.7 541 823 541C777.3 541 731.7 541 686 541C640.3 541 594.7 541 548.8 541C503 541 457 541 411.2 541C365.3 541 319.7 541 274 541C228.3 541 182.7 541 137 541C91.3 541 45.7 541 22.8 541L0 541Z" fill="#f12929"></path><path d="M0 348L22.8 353.8C45.7 359.7 91.3 371.3 137 366.5C182.7 361.7 228.3 340.3 274 335.7C319.7 331 365.3 343 411.2 344.5C457 346 503 337 548.8 329C594.7 321 640.3 314 686 314.8C731.7 315.7 777.3 324.3 823 329.3C868.7 334.3 914.3 335.7 937.2 336.3L960 337L960 541L937.2 541C914.3 541 868.7 541 823 541C777.3 541 731.7 541 686 541C640.3 541 594.7 541 548.8 541C503 541 457 541 411.2 541C365.3 541 319.7 541 274 541C228.3 541 182.7 541 137 541C91.3 541 45.7 541 22.8 541L0 541Z" fill="#cb2122"></path><path d="M0 420L22.8 420.3C45.7 420.7 91.3 421.3 137 415.2C182.7 409 228.3 396 274 381.8C319.7 367.7 365.3 352.3 411.2 353.7C457 355 503 373 548.8 373.2C594.7 373.3 640.3 355.7 686 359.7C731.7 363.7 777.3 389.3 823 398.8C868.7 408.3 914.3 401.7 937.2 398.3L960 395L960 541L937.2 541C914.3 541 868.7 541 823 541C777.3 541 731.7 541 686 541C640.3 541 594.7 541 548.8 541C503 541 457 541 411.2 541C365.3 541 319.7 541 274 541C228.3 541 182.7 541 137 541C91.3 541 45.7 541 22.8 541L0 541Z" fill="#a7191b"></path><path d="M0 431L22.8 428.8C45.7 426.7 91.3 422.3 137 423.7C182.7 425 228.3 432 274 430.8C319.7 429.7 365.3 420.3 411.2 420.3C457 420.3 503 429.7 548.8 437.7C594.7 445.7 640.3 452.3 686 452.8C731.7 453.3 777.3 447.7 823 447.5C868.7 447.3 914.3 452.7 937.2 455.3L960 458L960 541L937.2 541C914.3 541 868.7 541 823 541C777.3 541 731.7 541 686 541C640.3 541 594.7 541 548.8 541C503 541 457 541 411.2 541C365.3 541 319.7 541 274 541C228.3 541 182.7 541 137 541C91.3 541 45.7 541 22.8 541L0 541Z" fill="#841214"></path><path d="M0 456L22.8 461.2C45.7 466.3 91.3 476.7 137 479.7C182.7 482.7 228.3 478.3 274 477.8C319.7 477.3 365.3 480.7 411.2 484C457 487.3 503 490.7 548.8 487.3C594.7 484 640.3 474 686 474.7C731.7 475.3 777.3 486.7 823 486.5C868.7 486.3 914.3 474.7 937.2 468.8L960 463L960 541L937.2 541C914.3 541 868.7 541 823 541C777.3 541 731.7 541 686 541C640.3 541 594.7 541 548.8 541C503 541 457 541 411.2 541C365.3 541 319.7 541 274 541C228.3 541 182.7 541 137 541C91.3 541 45.7 541 22.8 541L0 541Z" fill="#630b0b"></path></svg>